<svg width="18" height="18" viewBox="0 0 18 18" fill="none" xmlns="http://www.w3.org/2000/svg">
<path fill-rule="evenodd" clip-rule="evenodd" d="M6 1.5C6.41421 1.5 6.75 1.83579 6.75 2.25V3H11.25V2.25C11.25 1.83579 11.5858 1.5 12 1.5C12.4142 1.5 12.75 1.83579 12.75 2.25V3H14.25C15.4926 3 16.5 4.00736 16.5 5.25V14.25C16.5 15.4926 15.4926 16.5 14.25 16.5H3.75C2.50736 16.5 1.5 15.4926 1.5 14.25V5.25C1.5 4.00736 2.50736 3 3.75 3H5.25V2.25C5.25 1.83579 5.58579 1.5 6 1.5ZM5.25 4.5H3.75C3.33579 4.5 3 4.83579 3 5.25V14.25C3 14.6642 3.33579 15 3.75 15H14.25C14.6642 15 15 14.6642 15 14.25V5.25C15 4.83579 14.6642 4.5 14.25 4.5H12.75V5.25C12.75 5.66421 12.4142 6 12 6C11.5858 6 11.25 5.66421 11.25 5.25V4.5H6.75V5.25C6.75 5.66421 6.41421 6 6 6C5.58579 6 5.25 5.66421 5.25 5.25V4.5ZM4.5 8.25C4.5 7.83579 4.83579 7.5 5.25 7.5H12.75C13.1642 7.5 13.5 7.83579 13.5 8.25C13.5 8.66421 13.1642 9 12.75 9H5.25C4.83579 9 4.5 8.66421 4.5 8.25Z" fill="black"/>
</svg>
