<svg width="84" height="84" viewBox="0 0 84 84" fill="none" xmlns="http://www.w3.org/2000/svg">
<path fill-rule="evenodd" clip-rule="evenodd" d="M42 14C26.536 14 14 26.536 14 42C14 57.464 26.536 70 42 70C57.464 70 70 57.464 70 42C70 26.536 57.464 14 42 14ZM7 42C7 22.67 22.67 7 42 7C61.33 7 77 22.67 77 42C77 61.33 61.33 77 42 77C22.67 77 7 61.33 7 42ZM54.9749 32.5251C56.3417 33.892 56.3417 36.108 54.9749 37.4749L40.9749 51.4749C39.608 52.8417 37.392 52.8417 36.0251 51.4749L29.0251 44.4749C27.6583 43.108 27.6583 40.892 29.0251 39.5251C30.392 38.1583 32.608 38.1583 33.9749 39.5251L38.5 44.0503L50.0251 32.5251C51.392 31.1583 53.608 31.1583 54.9749 32.5251Z" fill="#FECC33"/>
</svg>
