<svg width="85" height="84" viewBox="0 0 85 84" fill="none" xmlns="http://www.w3.org/2000/svg">
<path fill-rule="evenodd" clip-rule="evenodd" d="M24.75 14C22.817 14 21.25 15.567 21.25 17.5V66.5C21.25 68.433 22.817 70 24.75 70H59.75C61.683 70 63.25 68.433 63.25 66.5L63.25 32.9497L44.3003 14H24.75ZM14.25 17.5C14.25 11.701 18.951 7 24.75 7H44.3003C46.1568 7 47.9372 7.7375 49.25 9.05025L68.1997 28C69.5125 29.3128 70.25 31.0932 70.25 32.9497V66.5C70.25 72.299 65.549 77 59.75 77H24.75C18.951 77 14.25 72.299 14.25 66.5V17.5ZM42.25 31.5C44.183 31.5 45.75 33.067 45.75 35V42H52.75C54.683 42 56.25 43.567 56.25 45.5C56.25 47.433 54.683 49 52.75 49H45.75V56C45.75 57.933 44.183 59.5 42.25 59.5C40.317 59.5 38.75 57.933 38.75 56V49H31.75C29.817 49 28.25 47.433 28.25 45.5C28.25 43.567 29.817 42 31.75 42H38.75V35C38.75 33.067 40.317 31.5 42.25 31.5Z" fill="#656565"/>
</svg>
