<svg width="12" height="12" viewBox="0 0 12 12" fill="none" xmlns="http://www.w3.org/2000/svg">
<path fill-rule="evenodd" clip-rule="evenodd" d="M6.00012 2C3.79098 2 2.00012 3.79086 2.00012 6C2.00012 8.20914 3.79098 10 6.00012 10C8.20926 10 10.0001 8.20914 10.0001 6C10.0001 3.79086 8.20926 2 6.00012 2ZM1.00012 6C1.00012 3.23858 3.2387 1 6.00012 1C8.76155 1 11.0001 3.23858 11.0001 6C11.0001 8.76142 8.76155 11 6.00012 11C3.2387 11 1.00012 8.76142 1.00012 6ZM5.50012 4C5.50012 3.72386 5.72398 3.5 6.00012 3.5H6.00512C6.28126 3.5 6.50512 3.72386 6.50512 4C6.50512 4.27614 6.28126 4.5 6.00512 4.5H6.00012C5.72398 4.5 5.50012 4.27614 5.50012 4ZM5.00012 6C5.00012 5.72386 5.22398 5.5 5.50012 5.5H6.00012C6.27626 5.5 6.50012 5.72386 6.50012 6V7.5C6.77626 7.5 7.00012 7.72386 7.00012 8C7.00012 8.27614 6.77626 8.5 6.50012 8.5H6.00012C5.72398 8.5 5.50012 8.27614 5.50012 8V6.5C5.22398 6.5 5.00012 6.27614 5.00012 6Z" fill="#E5A200"/>
</svg>
