<svg width="85" height="84" viewBox="0 0 85 84" fill="none" xmlns="http://www.w3.org/2000/svg">
<path fill-rule="evenodd" clip-rule="evenodd" d="M69.7249 15.0251C68.358 13.6583 66.142 13.6583 64.7751 15.0251L35.75 44.0502L35.75 49H40.6997L69.7249 19.9749C71.0917 18.608 71.0917 16.392 69.7249 15.0251ZM59.8254 10.0754C63.9259 5.97487 70.5741 5.97487 74.6746 10.0754C78.7751 14.1759 78.7751 20.8241 74.6746 24.9246L44.6244 54.9749C43.968 55.6313 43.0777 56 42.1495 56H32.25C30.317 56 28.75 54.433 28.75 52.5L28.75 42.6005C28.75 41.6722 29.1187 40.782 29.7751 40.1256L59.8254 10.0754ZM21.75 21C19.817 21 18.25 22.567 18.25 24.5V63C18.25 64.933 19.817 66.5 21.75 66.5H60.25C62.183 66.5 63.75 64.933 63.75 63V45.5C63.75 43.567 65.317 42 67.25 42C69.183 42 70.75 43.567 70.75 45.5V63C70.75 68.799 66.049 73.5 60.25 73.5H21.75C15.951 73.5 11.25 68.799 11.25 63V24.5C11.25 18.701 15.951 14 21.75 14H39.25C41.183 14 42.75 15.567 42.75 17.5C42.75 19.433 41.183 21 39.25 21H21.75Z" fill="#656565"/>
</svg>
