<svg width="170" height="170" viewBox="0 0 170 170" fill="none" xmlns="http://www.w3.org/2000/svg">
<g id="Logo" clip-path="url(#clip0_503_3830)">
<path id="Vector" d="M62.6208 159.793C54.6258 159.8 46.7351 157.978 39.5529 154.466C32.3707 150.954 26.0874 145.845 21.1842 139.53C16.281 133.215 12.8879 125.861 11.2648 118.033C9.64159 110.204 9.83139 102.108 11.8196 94.3643C13.8078 86.6205 17.5418 79.4343 22.7355 73.356C27.9292 67.2777 34.445 62.4686 41.7839 59.2967C49.1228 56.1249 57.0903 54.6745 65.0761 55.0567C73.062 55.4389 80.8545 57.6434 87.857 61.5015C87.9629 61.539 88.0651 61.5861 88.1623 61.6424C88.9749 62.1557 89.91 62.4422 90.8707 62.4721C92.1495 62.4721 93.3759 61.9641 94.2802 61.0599C95.1845 60.1556 95.6925 58.9292 95.6925 57.6503C95.6952 57.0496 95.5809 56.454 95.3559 55.897L95.2854 55.6778C92.5127 48.5472 92.2726 40.6807 94.6053 33.3943C96.938 26.1079 101.702 19.8435 108.1 15.649C114.499 11.4546 122.144 9.5844 129.756 10.3514C137.368 11.1185 144.486 14.4762 149.919 19.8628C155.352 25.2495 158.77 32.3384 159.602 39.9437C160.434 47.549 158.63 55.2094 154.49 61.6435C150.351 68.0776 144.127 72.895 136.861 75.29C129.595 77.685 121.727 77.5122 114.573 74.8006L113.962 74.5893C113.402 74.3609 112.805 74.2362 112.201 74.2214H112.123C110.86 74.2399 109.656 74.759 108.775 75.6645C107.895 76.57 107.409 77.788 107.426 79.051C107.458 80.063 107.776 81.0453 108.342 81.8846L108.389 81.9629C112.817 89.9357 115.088 98.9264 114.976 108.046C114.864 117.165 112.373 126.098 107.75 133.959C103.127 141.821 96.5321 148.34 88.6169 152.87C80.7018 157.401 71.741 159.787 62.6208 159.793Z" fill="black"/>
<path id="Vector_2" d="M126.4 10.1759C131.298 10.1713 136.138 11.2441 140.575 13.3183C145.012 15.3924 148.939 18.4171 152.077 22.178C155.215 25.9389 157.487 30.344 158.733 35.0811C159.979 39.8181 160.168 44.7712 159.286 49.5893C158.404 54.4074 156.473 58.9726 153.631 62.9614C150.788 66.9501 147.103 70.2648 142.836 72.6706C138.569 75.0763 133.826 76.5141 128.941 76.8822C124.057 77.2504 119.152 76.5397 114.573 74.8006L113.962 74.5893C113.402 74.3609 112.805 74.2362 112.201 74.2214H112.123C110.86 74.24 109.656 74.759 108.775 75.6645C107.895 76.57 107.409 77.788 107.426 79.051C107.458 80.063 107.776 81.0453 108.342 81.8846L108.389 81.9629C112.817 89.9357 115.088 98.9265 114.976 108.046C114.864 117.165 112.373 126.098 107.75 133.959C103.127 141.821 96.5321 148.34 88.6169 152.87C80.7018 157.401 71.741 159.787 62.6208 159.793C48.724 159.793 35.3964 154.272 25.5699 144.446C15.7433 134.619 10.2228 121.292 10.2228 107.395C10.2228 93.498 15.7433 80.1703 25.5699 70.3438C35.3964 60.5173 48.724 54.9968 62.6208 54.9968C71.4625 54.9965 80.1603 57.2343 87.904 61.5015C88.0099 61.539 88.1121 61.5861 88.2093 61.6424C89.0219 62.1557 89.957 62.4422 90.9177 62.4722C92.1965 62.4722 93.4229 61.9641 94.3272 61.0599C95.2314 60.1556 95.7395 58.9292 95.7395 57.6504C95.7422 57.0496 95.6279 56.454 95.4029 55.897L95.3324 55.6778C93.3687 50.621 92.6659 45.162 93.2847 39.7727C93.9036 34.3834 95.8255 29.2259 98.8844 24.7459C101.943 20.2658 106.047 16.598 110.841 14.0595C115.635 11.521 120.975 10.188 126.4 10.1759ZM126.4 1.1473e-05C120.283 0.00797779 114.236 1.30216 108.651 3.79855C103.067 6.29495 98.0695 9.93776 93.9839 14.4906C89.8984 19.0434 86.8158 24.4044 84.9363 30.2257C83.0569 36.0469 82.4225 42.1984 83.0744 48.2807C69.7016 43.6567 55.1559 43.7046 41.8138 48.4167C28.4717 53.1287 17.1221 62.2262 9.61917 74.2229C2.11626 86.2196 -1.09635 100.406 0.506241 114.465C2.10883 128.523 8.43186 141.623 18.4423 151.623C28.4527 161.624 41.5587 167.933 55.6189 169.522C69.6792 171.11 83.8625 167.883 95.8516 160.368C107.841 152.853 116.927 141.494 121.625 128.147C126.324 114.8 126.357 100.255 121.719 86.8865C123.279 87.0528 124.847 87.1364 126.416 87.137C132.207 87.2457 137.961 86.1989 143.343 84.0577C148.725 81.9165 153.626 78.7239 157.759 74.6666C161.893 70.6092 165.176 65.7686 167.417 60.4276C169.658 55.0866 170.811 49.3525 170.81 43.5605C170.809 37.7685 169.653 32.0348 167.411 26.6946C165.168 21.3544 161.883 16.515 157.748 12.4591C153.613 8.40329 148.711 5.21247 143.329 3.07322C137.946 0.93396 132.191 -0.110802 126.4 1.1473e-05Z" fill="white"/>
<path id="Vector_3" d="M62.6209 60.9144C52.4221 60.9126 42.5057 64.2646 34.3998 70.454C26.2938 76.6435 20.4482 85.3268 17.7637 95.1659C15.0791 105.005 15.7047 115.454 19.5439 124.902C23.3831 134.351 30.2229 142.275 39.0093 147.453C47.7958 152.631 58.0413 154.776 68.167 153.558C78.2927 152.339 87.7367 147.825 95.0438 140.71C102.351 133.595 107.115 124.274 108.603 114.185C110.091 104.095 108.22 93.796 103.277 84.8747C102.164 83.1353 101.564 81.1165 101.548 79.051C101.535 76.2219 102.644 73.5031 104.632 71.4902C106.62 69.4773 109.325 68.3343 112.154 68.3115H112.342C113.571 68.334 114.786 68.5697 115.935 69.0082C116.107 69.0708 116.279 69.1334 116.467 69.1882L116.639 69.2508C122.53 71.4965 129.013 71.6475 135.002 69.6786C140.991 67.7097 146.12 63.7407 149.529 58.4378C152.938 53.1348 154.418 46.8207 153.723 40.5551C153.027 34.2896 150.198 28.454 145.709 24.0277C141.22 19.6014 135.346 16.8539 129.071 16.2463C122.796 15.6387 116.503 17.208 111.249 20.6908C105.994 24.1736 102.097 29.3579 100.213 35.3736C98.328 41.3893 98.5699 47.8702 100.898 53.7287L100.976 54.0105C101.727 56.0675 101.829 58.3053 101.268 60.422C100.708 62.5388 99.5117 64.4328 97.8415 65.8489C96.1712 67.2649 94.107 68.1349 91.9271 68.3415C89.7471 68.5481 87.5562 68.0814 85.6497 67.0043C85.5219 66.9554 85.3988 66.8952 85.2818 66.8243C78.3439 62.9483 70.5289 60.9137 62.5817 60.9144H62.6209Z" fill="#FECC33"/>
<path id="Vector_4" d="M126.322 65.8067C125.906 65.8091 125.494 65.7287 125.11 65.5701C124.725 65.4115 124.376 65.178 124.083 64.8831C122.291 63.1375 120.169 61.3919 117.954 59.5446C111.238 53.9792 104.295 48.2259 104.295 41.2906C104.295 33.1265 109.774 26.9661 117.046 26.9661C120.424 27.0395 123.683 28.2223 126.322 30.332C128.961 28.2233 132.22 27.0407 135.598 26.9661C142.869 26.9661 148.349 33.1265 148.349 41.2906C148.349 48.2259 141.406 53.9792 134.69 59.5446C132.467 61.3919 130.353 63.1375 128.6 64.8517C128.302 65.1542 127.948 65.3944 127.557 65.5583C127.166 65.7223 126.746 65.8067 126.322 65.8067Z" fill="black"/>
<path id="Vector_5" d="M117.046 32.9307C113.015 32.9307 110.205 36.3905 110.205 41.3454C110.205 45.5019 116.326 50.5742 121.727 55.0516C123.293 56.3275 124.858 57.6425 126.322 58.9654C127.801 57.6425 129.383 56.3353 130.925 55.0516C136.326 50.535 142.462 45.4549 142.462 41.3063C142.462 36.3514 139.645 32.8916 135.613 32.8916C133.226 32.8916 130.729 34.0892 128.396 36.3592C127.844 36.8939 127.106 37.1928 126.338 37.1928C125.569 37.1928 124.831 36.8939 124.279 36.3592C121.931 34.0892 119.449 32.8916 117.062 32.8916L117.046 32.9307Z" fill="white"/>
<path id="Vector_6" d="M40.7036 92.7963V69.4231H48.5312C50.6186 69.4231 52.1632 70.0023 53.1651 71.1608C54.2923 72.5928 54.85 74.3911 54.7307 76.2096C54.739 76.9986 54.6603 77.7862 54.4958 78.5579C54.3771 79.1813 54.1464 79.778 53.8148 80.3191C53.5332 80.7777 53.182 81.1896 52.7738 81.5402C52.3652 81.8859 51.8952 82.1514 51.3883 82.323C50.8661 82.5119 50.3257 82.6457 49.7758 82.7222C49.1716 82.807 48.5621 82.8488 47.9519 82.8474H45.8698V92.7963H40.7036ZM45.862 79.2467H47.5058C47.8501 79.2957 48.2011 79.256 48.5258 79.1313C48.8504 79.0067 49.1379 78.8012 49.3609 78.5344C49.7259 77.7859 49.8853 76.9539 49.8227 76.1235V75.1451C49.799 74.8632 49.7438 74.5849 49.6584 74.3153C49.6063 74.0453 49.4879 73.7925 49.314 73.5795C49.1181 73.3993 48.8859 73.2632 48.633 73.1803C48.292 73.0693 47.9347 73.0164 47.5762 73.0238H45.8698L45.862 79.2467ZM56.304 92.7963V69.4231H62.6757C63.5526 69.4217 64.4287 69.4792 65.2979 69.5953C66.0326 69.7021 66.7507 69.902 67.4349 70.1902C68.0581 70.4318 68.6216 70.8057 69.0865 71.286C69.5467 71.8003 69.8934 72.4058 70.1041 73.0629C70.359 73.8887 70.4753 74.7509 70.4485 75.6147C70.503 76.8759 70.2924 78.1346 69.8301 79.3093C69.3692 80.2743 68.5737 81.0392 67.5914 81.4619L70.8086 92.7807H65.478L62.9105 82.3386H61.4624V92.7963H56.304ZM61.4624 79.3641H62.7853C63.1923 79.415 63.6056 79.3707 63.9927 79.2349C64.3798 79.0991 64.7301 78.8754 65.0161 78.5814C65.5019 77.855 65.7306 76.9871 65.6658 76.1157C65.7284 75.2728 65.5229 74.4317 65.0788 73.7126C64.8297 73.4296 64.5161 73.2107 64.1646 73.0745C63.8131 72.9382 63.434 72.8886 63.0592 72.9298H61.4937L61.4624 79.3641ZM79.4816 93.1486C78.3532 93.1772 77.2289 93.0021 76.1627 92.6319C75.3018 92.326 74.5449 91.7834 73.9787 91.0664C73.4322 90.3725 73.0351 89.573 72.8124 88.7181C72.5528 87.642 72.4292 86.5375 72.4445 85.4305V76.8202C72.4284 75.7115 72.5467 74.6049 72.7968 73.5247C73.0172 72.6533 73.4171 71.8375 73.9709 71.1295C74.5471 70.434 75.3022 69.909 76.1548 69.6109C77.2235 69.2511 78.3463 69.0789 79.4737 69.1021C82.0099 69.1021 83.8207 69.7492 84.9061 71.0434C86.002 72.3428 86.5421 74.2449 86.5421 76.7654V85.3757C86.5421 87.9119 85.9941 89.8375 84.8983 91.1369C83.8024 92.4362 82.0099 93.1016 79.4816 93.1486ZM78.6988 89.3287C78.9411 89.451 79.2103 89.5103 79.4816 89.5009C79.7519 89.5101 80.0205 89.4537 80.2643 89.3365C80.4692 89.2448 80.6491 89.1052 80.7888 88.9295C80.9289 88.738 81.0275 88.5194 81.0784 88.2876C81.1506 88.0322 81.1952 87.7698 81.2115 87.5048V74.7067C81.1937 74.4599 81.1491 74.2158 81.0784 73.9787C81.0243 73.7505 80.9259 73.5351 80.7888 73.3447C80.6466 73.1735 80.4672 73.037 80.2643 72.9455C80.0166 72.8409 79.7505 72.787 79.4816 72.787C79.2127 72.787 78.9465 72.8409 78.6988 72.9455C78.5012 73.0419 78.3254 73.1778 78.1822 73.3447C78.0492 73.5364 77.9536 73.7516 77.9004 73.9787C77.8454 74.2159 77.8062 74.4565 77.783 74.6989V87.4735C77.8062 87.7211 77.8454 87.9669 77.9004 88.2093C77.9534 88.439 78.049 88.6567 78.1822 88.8512C78.3158 89.0315 78.4867 89.181 78.6831 89.2895L78.6988 89.3287ZM27.154 118.541V114.948H27.3419C28.0525 115.03 28.7703 114.876 29.3849 114.51C29.6177 114.25 29.7914 113.942 29.8941 113.609C29.9968 113.275 30.026 112.923 29.9798 112.577V94.5732H35.1382V112.772C35.136 113.623 35.0388 114.471 34.8485 115.301C34.6885 115.95 34.3894 116.556 33.9718 117.078C33.538 117.606 32.9582 117.996 32.3046 118.197C31.4497 118.455 30.5591 118.573 29.6667 118.549L27.154 118.541ZM44.5548 118.299C43.6154 118.314 42.6781 118.204 41.7681 117.97C41.0559 117.788 40.3858 117.469 39.7956 117.031C39.2636 116.608 38.8307 116.073 38.5275 115.465C38.1991 114.792 37.9697 114.075 37.8465 113.336C37.7071 112.437 37.6417 111.529 37.6508 110.62V94.6123H42.7544V112.318C42.779 112.6 42.8235 112.88 42.8875 113.156C42.9463 113.417 43.044 113.668 43.1771 113.9C43.3108 114.102 43.4941 114.266 43.7094 114.377C43.9658 114.5 44.2467 114.565 44.5313 114.565C44.8159 114.565 45.0968 114.5 45.3532 114.377C45.5656 114.268 45.7442 114.103 45.8698 113.9C46.0096 113.671 46.1077 113.419 46.1594 113.156C46.2316 112.879 46.2762 112.596 46.2925 112.311V94.6123H51.4039V110.62C51.4277 111.733 51.3173 112.844 51.0752 113.931C50.8752 114.782 50.4993 115.582 49.9715 116.279C49.426 116.978 48.6848 117.498 47.8424 117.774C46.7847 118.136 45.6726 118.314 44.5548 118.299ZM57.9243 117.978L53.6974 94.6123H58.1122L60.6327 110.369L62.981 94.6123H67.6775L63.4036 117.978H57.9243ZM69.9397 117.978V94.6123H80.4365V98.1347H75.0981V103.912H79.1684V107.504H75.0981V114.487H80.4913V117.978H69.9397ZM82.8318 117.978V94.6123H86.4716L91.2778 105.829V94.6123H95.5595V117.978H92.0605L87.2465 105.884V117.978H82.8318ZM37.0637 143.425V123.856H33.4709V120.036H45.7837V123.856H42.2691V143.425H37.0637ZM54.535 143.746C53.5981 143.762 52.6635 143.651 51.7562 143.417C51.0397 143.239 50.368 142.914 49.7836 142.462C49.2494 142.046 48.8204 141.51 48.5312 140.897C48.1958 140.229 47.9636 139.513 47.8424 138.776C47.703 137.877 47.6375 136.969 47.6467 136.06V120.06H52.7503V137.766C52.7749 138.048 52.8193 138.328 52.8833 138.603C52.9384 138.878 53.0361 139.142 53.173 139.386C53.3066 139.588 53.4899 139.753 53.7052 139.864C53.9616 139.987 54.2426 140.051 54.5271 140.051C54.8117 140.051 55.0926 139.987 55.349 139.864C55.5614 139.754 55.74 139.589 55.8657 139.386C56.0099 139.146 56.1081 138.88 56.1553 138.603C56.2275 138.327 56.272 138.044 56.2884 137.758V120.06H61.3998V136.067C61.4235 137.18 61.3131 138.292 61.071 139.378C60.8754 140.231 60.499 141.032 59.9673 141.727C59.449 142.445 58.7261 142.991 57.893 143.292C56.8091 143.64 55.6723 143.794 54.535 143.746ZM66.8791 143.425V123.856H63.2862V120.036H75.6069V123.856H72.014V143.425H66.8791ZM77.6029 143.425V120.06H88.1076V123.582H82.7613V129.359H86.8395V132.952H82.7613V139.926H88.1624V143.425H77.6029Z" fill="black"/>
</g>
<defs>
<clipPath id="clip0_503_3830">
<rect width="170" height="169.969" fill="white"/>
</clipPath>
</defs>
</svg>
