<svg width="84" height="84" viewBox="0 0 84 84" fill="none" xmlns="http://www.w3.org/2000/svg">
<path fill-rule="evenodd" clip-rule="evenodd" d="M7 42C7 22.67 22.67 7 42 7C43.933 7 45.5 8.567 45.5 10.5C45.5 12.433 43.933 14 42 14C26.536 14 14 26.536 14 42C14 57.464 26.536 70 42 70C57.464 70 70 57.464 70 42C70 40.067 71.567 38.5 73.5 38.5C75.433 38.5 77 40.067 77 42C77 61.33 61.33 77 42 77C22.67 77 7 61.33 7 42Z" fill="#656565"/>
<path fill-rule="evenodd" clip-rule="evenodd" d="M68.9749 15.0251C67.608 13.6583 65.392 13.6583 64.0251 15.0251L35 44.0503L35 49H39.9497L68.9749 19.9749C70.3417 18.608 70.3417 16.392 68.9749 15.0251ZM59.0754 10.0754C63.1759 5.97487 69.8241 5.97487 73.9246 10.0754C78.0251 14.1759 78.0251 20.8241 73.9246 24.9246L43.8744 54.9749C43.218 55.6313 42.3277 56 41.3995 56H31.5C29.567 56 28 54.433 28 52.5L28 42.6005C28 41.6722 28.3687 40.782 29.0251 40.1256L59.0754 10.0754Z" fill="#656565"/>
</svg>
