<svg width="16" height="16" viewBox="0 0 16 16" fill="none" xmlns="http://www.w3.org/2000/svg">
<path d="M13.9314 2.06863C13.3065 1.44379 12.2935 1.44379 11.6686 2.06863L5.60001 8.13726V10.4H7.86274L13.9314 4.33137C14.5562 3.70653 14.5562 2.69347 13.9314 2.06863Z" fill="black"/>
<path fill-rule="evenodd" clip-rule="evenodd" d="M1.60001 4.8C1.60001 3.91634 2.31635 3.2 3.20001 3.2H6.40001C6.84183 3.2 7.20001 3.55817 7.20001 4C7.20001 4.44183 6.84183 4.8 6.40001 4.8H3.20001V12.8H11.2V9.6C11.2 9.15817 11.5582 8.8 12 8.8C12.4418 8.8 12.8 9.15817 12.8 9.6V12.8C12.8 13.6837 12.0837 14.4 11.2 14.4H3.20001C2.31635 14.4 1.60001 13.6837 1.60001 12.8V4.8Z" fill="black"/>
</svg>
