<svg width="16" height="16" viewBox="0 0 16 16" fill="none" xmlns="http://www.w3.org/2000/svg">
<path fill-rule="evenodd" clip-rule="evenodd" d="M8.0001 2.66671C5.05458 2.66671 2.66677 5.05452 2.66677 8.00004C2.66677 10.9456 5.05458 13.3334 8.0001 13.3334C10.9456 13.3334 13.3334 10.9456 13.3334 8.00004C13.3334 5.05452 10.9456 2.66671 8.0001 2.66671ZM1.33344 8.00004C1.33344 4.31814 4.3182 1.33337 8.0001 1.33337C11.682 1.33337 14.6668 4.31814 14.6668 8.00004C14.6668 11.6819 11.682 14.6667 8.0001 14.6667C4.3182 14.6667 1.33344 11.6819 1.33344 8.00004ZM8.0001 5.33337C8.36829 5.33337 8.66677 5.63185 8.66677 6.00004V7.33337H10.0001C10.3683 7.33337 10.6668 7.63185 10.6668 8.00004C10.6668 8.36823 10.3683 8.66671 10.0001 8.66671H8.66677V10C8.66677 10.3682 8.36829 10.6667 8.0001 10.6667C7.63191 10.6667 7.33344 10.3682 7.33344 10V8.66671H6.0001C5.63191 8.66671 5.33344 8.36823 5.33344 8.00004C5.33344 7.63185 5.63191 7.33337 6.0001 7.33337H7.33344V6.00004C7.33344 5.63185 7.63191 5.33337 8.0001 5.33337Z" fill="black"/>
</svg>
