<svg width="84" height="84" viewBox="0 0 84 84" fill="none" xmlns="http://www.w3.org/2000/svg">
<path fill-rule="evenodd" clip-rule="evenodd" d="M42 14C26.536 14 14 26.536 14 42C14 57.464 26.536 70 42 70C57.464 70 70 57.464 70 42C70 26.536 57.464 14 42 14ZM7 42C7 22.67 22.67 7 42 7C61.33 7 77 22.67 77 42C77 61.33 61.33 77 42 77C22.67 77 7 61.33 7 42ZM42.0002 28C36.8492 28 33.1506 30.4718 31.9629 32.992C31.1388 34.7406 29.0533 35.4901 27.3048 34.666C25.5562 33.842 24.8067 31.7565 25.6308 30.008C28.2869 24.3718 34.9598 21 42.0002 21C46.5502 21 50.8043 22.3788 53.9997 24.7754C57.1962 27.1727 59.5002 30.7519 59.5002 35C59.5002 42.2427 53.0812 47.2787 46.1394 48.6104C45.8852 48.6592 45.6827 48.785 45.5722 48.902C45.5223 48.9548 45.5048 48.9909 45.5008 49.0004C45.5006 49.001 45.5004 49.0015 45.5002 49.0019C45.4992 50.934 43.9326 52.5 42.0002 52.5C40.0672 52.5 38.5002 50.933 38.5002 49C38.5002 45.0027 41.6839 42.3375 44.8206 41.7358C49.9759 40.7468 52.5002 37.5534 52.5002 35C52.5002 33.4492 51.6702 31.7783 49.7997 30.3754C47.9281 28.9717 45.1821 28 42.0002 28ZM38.5 59.5C38.5 57.567 40.067 56 42 56H42.035C43.968 56 45.535 57.567 45.535 59.5C45.535 61.433 43.968 63 42.035 63H42C40.067 63 38.5 61.433 38.5 59.5Z" fill="#FECC33"/>
</svg>
