<svg width="16" height="16" viewBox="0 0 16 16" fill="none" xmlns="http://www.w3.org/2000/svg">
<path fill-rule="evenodd" clip-rule="evenodd" d="M8.0001 2C8.36829 2 8.66677 2.29848 8.66677 2.66667L8.66677 7.72386L9.5287 6.86193C9.78905 6.60158 10.2112 6.60158 10.4715 6.86193C10.7319 7.12228 10.7319 7.54439 10.4715 7.80474L8.47151 9.80474C8.21116 10.0651 7.78905 10.0651 7.5287 9.80474L5.5287 7.80474C5.26835 7.54439 5.26835 7.12228 5.5287 6.86193C5.78905 6.60158 6.21116 6.60158 6.47151 6.86193L7.33344 7.72386L7.33343 2.66667C7.33343 2.29848 7.63191 2 8.0001 2ZM1.33344 6C1.33344 4.89543 2.22887 4 3.33344 4H5.33344C5.70162 4 6.0001 4.29848 6.0001 4.66667C6.0001 5.03486 5.70162 5.33333 5.33344 5.33333H3.33344C2.96525 5.33333 2.66677 5.63181 2.66677 6V12C2.66677 12.3682 2.96525 12.6667 3.33344 12.6667H12.6668C13.035 12.6667 13.3334 12.3682 13.3334 12V6C13.3334 5.63181 13.035 5.33333 12.6668 5.33333H10.6668C10.2986 5.33333 10.0001 5.03486 10.0001 4.66667C10.0001 4.29848 10.2986 4 10.6668 4H12.6668C13.7713 4 14.6668 4.89543 14.6668 6V12C14.6668 13.1046 13.7713 14 12.6668 14H3.33344C2.22887 14 1.33344 13.1046 1.33344 12V6Z" fill="black"/>
</svg>
