<svg width="84" height="84" viewBox="0 0 84 84" fill="none" xmlns="http://www.w3.org/2000/svg">
<path fill-rule="evenodd" clip-rule="evenodd" d="M28 14C28 10.134 31.134 7 35 7H49C52.866 7 56 10.134 56 14V21H66.4639C66.4855 20.9998 66.5072 20.9998 66.5289 21H70C71.933 21 73.5 22.567 73.5 24.5C73.5 26.433 71.933 28 70 28H69.7589L66.9555 67.2481C66.563 72.7428 61.9909 77 56.4822 77H27.5178C22.0091 77 17.437 72.7428 17.0445 67.2481L14.2411 28H14C12.067 28 10.5 26.433 10.5 24.5C10.5 22.567 12.067 21 14 21H17.4711C17.4928 20.9998 17.5145 20.9998 17.5361 21H28V14ZM21.2589 28L24.0267 66.7494C24.1576 68.5809 25.6816 70 27.5178 70H56.4822C58.3184 70 59.8424 68.5809 59.9733 66.7494L62.7411 28H21.2589ZM49 21H35V14H49V21ZM35 35C36.933 35 38.5 36.567 38.5 38.5V59.5C38.5 61.433 36.933 63 35 63C33.067 63 31.5 61.433 31.5 59.5V38.5C31.5 36.567 33.067 35 35 35ZM49 35C50.933 35 52.5 36.567 52.5 38.5V59.5C52.5 61.433 50.933 63 49 63C47.067 63 45.5 61.433 45.5 59.5V38.5C45.5 36.567 47.067 35 49 35Z" fill="#FECC33"/>
</svg>
