<svg width="85" height="84" viewBox="0 0 85 84" fill="none" xmlns="http://www.w3.org/2000/svg">
<path fill-rule="evenodd" clip-rule="evenodd" d="M32 14C26.201 14 21.5 18.701 21.5 24.5C21.5 30.299 26.201 35 32 35C35.1203 35 37.9227 33.6389 39.8459 31.4781C39.864 31.4572 39.8823 31.4364 39.9009 31.4158C41.5192 29.5685 42.5 27.1488 42.5 24.5C42.5 21.8511 41.5191 19.4314 39.9008 17.5841C39.8823 17.5636 39.864 17.5429 39.846 17.522C37.9228 15.3611 35.1204 14 32 14ZM42.5004 10.499C39.5755 8.30191 35.9398 7 32 7C22.335 7 14.5 14.835 14.5 24.5C14.5 34.165 22.335 42 32 42C35.9398 42 39.5755 40.6981 42.5004 38.501C45.4237 40.696 49.0608 42 53 42C62.665 42 70.5 34.165 70.5 24.5C70.5 14.835 62.665 7 53 7C49.0608 7 45.4237 8.30402 42.5004 10.499ZM47.1683 15.7664C48.6514 18.3367 49.5 21.3192 49.5 24.5C49.5 27.6808 48.6514 30.6633 47.1683 33.2336C48.8373 34.351 50.8418 35 53 35C58.799 35 63.5 30.299 63.5 24.5C63.5 18.701 58.799 14 53 14C50.8418 14 48.8373 14.649 47.1683 15.7664ZM32 52.5C22.335 52.5 14.5 60.335 14.5 70H49.5C49.5 60.335 41.665 52.5 32 52.5ZM56.5 70H70.5C70.5 60.335 62.665 52.5 53 52.5C51.7989 52.5 50.6275 52.6206 49.4966 52.8501C53.8288 57.2693 56.5 63.3227 56.5 70ZM42.501 47.8582C39.3183 46.3461 35.758 45.5 32 45.5C18.469 45.5 7.5 56.469 7.5 70V73.5C7.5 75.433 9.067 77 11 77H74C75.933 77 77.5 75.433 77.5 73.5V70C77.5 56.469 66.531 45.5 53 45.5C49.248 45.5 45.686 46.3457 42.501 47.8582Z" fill="#656565"/>
</svg>
