<svg width="20" height="20" viewBox="0 0 20 20" fill="none" xmlns="http://www.w3.org/2000/svg">
<path fill-rule="evenodd" clip-rule="evenodd" d="M10.0001 3.33335C6.31818 3.33335 3.33341 6.31812 3.33341 10C3.33341 13.6819 6.31818 16.6667 10.0001 16.6667C13.682 16.6667 16.6667 13.6819 16.6667 10C16.6667 6.31812 13.682 3.33335 10.0001 3.33335ZM1.66675 10C1.66675 5.39765 5.39771 1.66669 10.0001 1.66669C14.6025 1.66669 18.3334 5.39765 18.3334 10C18.3334 14.6024 14.6025 18.3334 10.0001 18.3334C5.39771 18.3334 1.66675 14.6024 1.66675 10ZM7.74416 7.7441C8.0696 7.41866 8.59723 7.41866 8.92267 7.7441L10.0001 8.82151L11.0775 7.7441C11.4029 7.41866 11.9306 7.41866 12.256 7.7441C12.5814 8.06954 12.5814 8.59717 12.256 8.92261L11.1786 10L12.256 11.0774C12.5814 11.4029 12.5814 11.9305 12.256 12.2559C11.9306 12.5814 11.4029 12.5814 11.0775 12.2559L10.0001 11.1785L8.92267 12.2559C8.59723 12.5814 8.0696 12.5814 7.74416 12.2559C7.41872 11.9305 7.41872 11.4029 7.74416 11.0774L8.82157 10L7.74416 8.92261C7.41872 8.59717 7.41872 8.06954 7.74416 7.7441Z" fill="black"/>
</svg>
